<svg height="2014" width="720" xmlns="http://www.w3.org/2000/svg">
<rect height="2014" fill="#555" width="720"></rect>
<text fill="#7f7" font-family="Courier New" font-size="12" xml:space="preserve">
<tspan x="10" y="26">21 megabytes installed</tspan>
<tspan x="10" y="42"></tspan>
<tspan x="10" y="58">node_modules</tspan>
<tspan x="10" y="74">└─┬ alexa-app-server@3.0.1 </tspan>
<tspan x="10" y="90">  ├─┬ alexa-app@3.2.0 </tspan>
<tspan x="10" y="106">  │ ├─┬ alexa-utterances@0.2.1 </tspan>
<tspan x="10" y="122">  │ │ └── js-combinatorics@0.5.2 </tspan>
<tspan x="10" y="138">  │ ├─┬ alexa-verifier-middleware@0.2.2 </tspan>
<tspan x="10" y="154">  │ │ └─┬ alexa-verifier@0.3.6 </tspan>
<tspan x="10" y="170">  │ │   ├── node-forge@0.7.1 </tspan>
<tspan x="10" y="186">  │ │   ├─┬ request@2.81.0 </tspan>
<tspan x="10" y="202">  │ │   │ ├── aws-sign2@0.6.0 </tspan>
<tspan x="10" y="218">  │ │   │ ├── aws4@1.6.0 </tspan>
<tspan x="10" y="234">  │ │   │ ├── caseless@0.12.0 </tspan>
<tspan x="10" y="250">  │ │   │ ├─┬ combined-stream@1.0.5 </tspan>
<tspan x="10" y="266">  │ │   │ │ └── delayed-stream@1.0.0 </tspan>
<tspan x="10" y="282">  │ │   │ ├── extend@3.0.0 </tspan>
<tspan x="10" y="298">  │ │   │ ├── forever-agent@0.6.1 </tspan>
<tspan x="10" y="314">  │ │   │ ├─┬ form-data@2.1.4 </tspan>
<tspan x="10" y="330">  │ │   │ │ └── asynckit@0.4.0 </tspan>
<tspan x="10" y="346">  │ │   │ ├─┬ har-validator@4.2.1 </tspan>
<tspan x="10" y="362">  │ │   │ │ ├─┬ ajv@4.11.7 </tspan>
<tspan x="10" y="378">  │ │   │ │ │ ├── co@4.6.0 </tspan>
<tspan x="10" y="394">  │ │   │ │ │ └─┬ json-stable-stringify@1.0.1 </tspan>
<tspan x="10" y="410">  │ │   │ │ │   └── jsonify@0.0.0 </tspan>
<tspan x="10" y="426">  │ │   │ │ └── har-schema@1.0.5 </tspan>
<tspan x="10" y="442">  │ │   │ ├─┬ hawk@3.1.3 </tspan>
<tspan x="10" y="458">  │ │   │ │ ├── boom@2.10.1 </tspan>
<tspan x="10" y="474">  │ │   │ │ ├── cryptiles@2.0.5 </tspan>
<tspan x="10" y="490">  │ │   │ │ ├── hoek@2.16.3 </tspan>
<tspan x="10" y="506">  │ │   │ │ └── sntp@1.0.9 </tspan>
<tspan x="10" y="522">  │ │   │ ├─┬ http-signature@1.1.1 </tspan>
<tspan x="10" y="538">  │ │   │ │ ├── assert-plus@0.2.0 </tspan>
<tspan x="10" y="554">  │ │   │ │ ├─┬ jsprim@1.4.0 </tspan>
<tspan x="10" y="570">  │ │   │ │ │ ├── assert-plus@1.0.0 </tspan>
<tspan x="10" y="586">  │ │   │ │ │ ├── extsprintf@1.0.2 </tspan>
<tspan x="10" y="602">  │ │   │ │ │ ├── json-schema@0.2.3 </tspan>
<tspan x="10" y="618">  │ │   │ │ │ └── verror@1.3.6 </tspan>
<tspan x="10" y="634">  │ │   │ │ └─┬ sshpk@1.13.0 </tspan>
<tspan x="10" y="650">  │ │   │ │   ├── asn1@0.2.3 </tspan>
<tspan x="10" y="666">  │ │   │ │   ├── assert-plus@1.0.0 </tspan>
<tspan x="10" y="682">  │ │   │ │   ├── bcrypt-pbkdf@1.0.1 </tspan>
<tspan x="10" y="698">  │ │   │ │   ├─┬ dashdash@1.14.1 </tspan>
<tspan x="10" y="714">  │ │   │ │   │ └── assert-plus@1.0.0 </tspan>
<tspan x="10" y="730">  │ │   │ │   ├── ecc-jsbn@0.1.1 </tspan>
<tspan x="10" y="746">  │ │   │ │   ├─┬ getpass@0.1.6 </tspan>
<tspan x="10" y="762">  │ │   │ │   │ └── assert-plus@1.0.0 </tspan>
<tspan x="10" y="778">  │ │   │ │   ├── jodid25519@1.0.2 </tspan>
<tspan x="10" y="794">  │ │   │ │   ├── jsbn@0.1.1 </tspan>
<tspan x="10" y="810">  │ │   │ │   └── tweetnacl@0.14.5 </tspan>
<tspan x="10" y="826">  │ │   │ ├── is-typedarray@1.0.0 </tspan>
<tspan x="10" y="842">  │ │   │ ├── isstream@0.1.2 </tspan>
<tspan x="10" y="858">  │ │   │ ├── json-stringify-safe@5.0.1 </tspan>
<tspan x="10" y="874">  │ │   │ ├── oauth-sign@0.8.2 </tspan>
<tspan x="10" y="890">  │ │   │ ├── performance-now@0.2.0 </tspan>
<tspan x="10" y="906">  │ │   │ ├── qs@6.4.0 </tspan>
<tspan x="10" y="922">  │ │   │ ├── safe-buffer@5.0.1 </tspan>
<tspan x="10" y="938">  │ │   │ ├── stringstream@0.0.5 </tspan>
<tspan x="10" y="954">  │ │   │ ├─┬ tough-cookie@2.3.2 </tspan>
<tspan x="10" y="970">  │ │   │ │ └── punycode@1.4.1 </tspan>
<tspan x="10" y="986">  │ │   │ ├── tunnel-agent@0.6.0 </tspan>
<tspan x="10" y="1002">  │ │   │ └── uuid@3.0.1 </tspan>
<tspan x="10" y="1018">  │ │   └── validator@7.0.0 </tspan>
<tspan x="10" y="1034">  │ ├── bluebird@2.11.0 </tspan>
<tspan x="10" y="1050">  │ └── numbered@1.0.0 </tspan>
<tspan x="10" y="1066">  ├── bluebird@3.5.0 </tspan>
<tspan x="10" y="1082">  ├─┬ body-parser@1.16.1 </tspan>
<tspan x="10" y="1098">  │ ├── bytes@2.4.0 </tspan>
<tspan x="10" y="1114">  │ ├── content-type@1.0.2 </tspan>
<tspan x="10" y="1130">  │ ├─┬ debug@2.6.1 </tspan>
<tspan x="10" y="1146">  │ │ └── ms@0.7.2 </tspan>
<tspan x="10" y="1162">  │ ├── depd@1.1.0 </tspan>
<tspan x="10" y="1178">  │ ├─┬ http-errors@1.5.1 </tspan>
<tspan x="10" y="1194">  │ │ ├── inherits@2.0.3 </tspan>
<tspan x="10" y="1210">  │ │ ├── setprototypeof@1.0.2 </tspan>
<tspan x="10" y="1226">  │ │ └── statuses@1.3.1 </tspan>
<tspan x="10" y="1242">  │ ├── iconv-lite@0.4.15 </tspan>
<tspan x="10" y="1258">  │ ├─┬ on-finished@2.3.0 </tspan>
<tspan x="10" y="1274">  │ │ └── ee-first@1.1.1 </tspan>
<tspan x="10" y="1290">  │ ├── qs@6.2.1 </tspan>
<tspan x="10" y="1306">  │ ├─┬ raw-body@2.2.0 </tspan>
<tspan x="10" y="1322">  │ │ └── unpipe@1.0.0 </tspan>
<tspan x="10" y="1338">  │ └─┬ type-is@1.6.15 </tspan>
<tspan x="10" y="1354">  │   ├── media-typer@0.3.0 </tspan>
<tspan x="10" y="1370">  │   └─┬ mime-types@2.1.15 </tspan>
<tspan x="10" y="1386">  │     └── mime-db@1.27.0 </tspan>
<tspan x="10" y="1402">  ├── ejs@2.5.6 </tspan>
<tspan x="10" y="1418">  ├─┬ express@4.14.1 </tspan>
<tspan x="10" y="1434">  │ ├─┬ accepts@1.3.3 </tspan>
<tspan x="10" y="1450">  │ │ └── negotiator@0.6.1 </tspan>
<tspan x="10" y="1466">  │ ├── array-flatten@1.1.1 </tspan>
<tspan x="10" y="1482">  │ ├── content-disposition@0.5.2 </tspan>
<tspan x="10" y="1498">  │ ├── cookie@0.3.1 </tspan>
<tspan x="10" y="1514">  │ ├── cookie-signature@1.0.6 </tspan>
<tspan x="10" y="1530">  │ ├─┬ debug@2.2.0 </tspan>
<tspan x="10" y="1546">  │ │ └── ms@0.7.1 </tspan>
<tspan x="10" y="1562">  │ ├── encodeurl@1.0.1 </tspan>
<tspan x="10" y="1578">  │ ├── escape-html@1.0.3 </tspan>
<tspan x="10" y="1594">  │ ├── etag@1.7.0 </tspan>
<tspan x="10" y="1610">  │ ├─┬ finalhandler@0.5.1 </tspan>
<tspan x="10" y="1626">  │ │ └─┬ debug@2.2.0 </tspan>
<tspan x="10" y="1642">  │ │   └── ms@0.7.1 </tspan>
<tspan x="10" y="1658">  │ ├── fresh@0.3.0 </tspan>
<tspan x="10" y="1674">  │ ├── merge-descriptors@1.0.1 </tspan>
<tspan x="10" y="1690">  │ ├── methods@1.1.2 </tspan>
<tspan x="10" y="1706">  │ ├── parseurl@1.3.1 </tspan>
<tspan x="10" y="1722">  │ ├── path-to-regexp@0.1.7 </tspan>
<tspan x="10" y="1738">  │ ├─┬ proxy-addr@1.1.4 </tspan>
<tspan x="10" y="1754">  │ │ ├── forwarded@0.1.0 </tspan>
<tspan x="10" y="1770">  │ │ └── ipaddr.js@1.3.0 </tspan>
<tspan x="10" y="1786">  │ ├── qs@6.2.0 </tspan>
<tspan x="10" y="1802">  │ ├── range-parser@1.2.0 </tspan>
<tspan x="10" y="1818">  │ ├─┬ send@0.14.2 </tspan>
<tspan x="10" y="1834">  │ │ ├─┬ debug@2.2.0 </tspan>
<tspan x="10" y="1850">  │ │ │ └── ms@0.7.1 </tspan>
<tspan x="10" y="1866">  │ │ ├── destroy@1.0.4 </tspan>
<tspan x="10" y="1882">  │ │ └── mime@1.3.4 </tspan>
<tspan x="10" y="1898">  │ ├── serve-static@1.11.2 </tspan>
<tspan x="10" y="1914">  │ ├── utils-merge@1.0.0 </tspan>
<tspan x="10" y="1930">  │ └── vary@1.1.1 </tspan>
<tspan x="10" y="1946">  ├─┬ hotswap@1.1.0 </tspan>
<tspan x="10" y="1962">  │ └─┬ async@2.3.0 </tspan>
<tspan x="10" y="1978">  │   └── lodash@4.17.4 </tspan>
<tspan x="10" y="1994">  └── lodash.defaults@4.2.0</tspan>
</text>
</svg>
